# xmcd CD database file
#
# Track frame offsets:
#	183
#	12683
#	43958
#	80183
#	103850
#	119478
#	136583
#	154358
#	180083
#
# Disc length: 2696 seconds
#
# Revision: 0
# Processed by: cddbd v1.5.2PL0 Copyright (c) Steve Scherf et al.
# Submitted via: CDex 1.51
#
DISCID=790a8609
DTITLE=Paul Horn - China
DYEAR=1900
DGENRE=New Age
TTITLE0=Moon dance
TTITLE1=Autumn stream in a desolate gorge
TTITLE2=Under the pines
TTITLE3=In a sunny meadow
TTITLE4=Temple of the heaven
TTITLE5=Journey down south
TTITLE6=Reflected moon
TTITLE7=Riding on the wind
TTITLE8=Autumn in north sea
EXTD=
EXTT0=
EXTT1=
EXTT2=
EXTT3=
EXTT4=
EXTT5=
EXTT6=
EXTT7=
EXTT8=
PLAYORDER=
